<svg xmlns="http://www.w3.org/2000/svg" viewBox="0 0 240 240" fill="none">
  <defs>
    <filter id="s" x="-20%" y="-20%" width="140%" height="140%">
      <feDropShadow dx="0" dy="12" stdDeviation="10" flood-opacity="0.35"/>
    </filter>
  </defs>
  <g filter="url(#s)">
    <ellipse cx="120" cy="205" rx="68" ry="10" fill="#151515" opacity="0.2"/>
    <path d="M45 150c0 20 33 36 75 36s75-16 75-36v-10H45v10z" fill="#5C3A1E"/>
    <path d="M50 132c0 10 31 18 70 18s70-8 70-18H50z" fill="#F4C96A"/>
    <path d="M48 118c0 8 32 14 72 14s72-6 72-14H48z" fill="#9E2A2A"/>
    <path d="M50 104c0 8 31 14 70 14s70-6 70-14H50z" fill="#F4C96A"/>
    <path d="M52 90c0 7 30 12 68 12s68-5 68-12H52z" fill="#3D7A3D"/>
    <path d="M48 76c0 10 32 18 72 18s72-8 72-18H48z" fill="#9E2A2A"/>
    <ellipse cx="120" cy="64" rx="74" ry="26" fill="#E8A84A"/>
    <circle cx="88" cy="58" r="3" fill="#FBF6EE"/>
    <circle cx="125" cy="52" r="2.5" fill="#FBF6EE"/>
    <circle cx="155" cy="60" r="3" fill="#FBF6EE"/>
  </g>
</svg>
